<svg xmlns="http://www.w3.org/2000/svg" width="700" height="350" viewBox="0 0 700 350">
<style>
  .title { font: bold 18px sans-serif; fill: #333; }
  .subtitle { font: 14px sans-serif; fill: #666; }
  .yao-label { font: 14px sans-serif; fill: #333; }
  .rate { font: bold 14px monospace; fill: #333; }
  .phrase { font: 12px sans-serif; fill: #555; }
  .note { font: 11px sans-serif; fill: #888; }
  .bar-bg { fill: #e0e0e0; }
  .bar-fill { fill: #4CAF50; }
  .bar-empty { fill: #f5f5f5; stroke: #ccc; }
</style>
<rect width="700" height="350" fill="white"/>
<text x="20" y="30" class="title">地天泰</text>
<text x="20" y="50" class="subtitle">平和・繁栄・調和</text>
<line x1="20" y1="60" x2="680" y2="60" stroke="#ccc"/>
<text x="20" y="98" class="yao-label">上爻</text>
<rect x="70" y="83" width="200" height="20" class="bar-empty" rx="3"/>
<text x="280" y="98" class="rate">  0%</text>
<text x="335" y="98" class="phrase">城復于隍</text>
<text x="455" y="98" class="note">(城が堀に復る)</text>
<text x="630" y="98" class="note">n=5</text>
<text x="20" y="133" class="yao-label">五爻</text>
<rect x="70" y="118" width="200" height="20" class="bar-empty" rx="3"/>
<rect x="70" y="118" width="200" height="20" fill="#4CAF50" rx="3"/>
<text x="280" y="133" class="rate">100%</text>
<text x="335" y="133" class="phrase">帝乙帰妹</text>
<text x="455" y="133" class="note">(帝乙が妹を嫁がせる)</text>
<text x="630" y="133" class="note">n=1</text>
<text x="20" y="168" class="yao-label">四爻</text>
<rect x="70" y="153" width="200" height="20" class="bar-empty" rx="3"/>
<text x="280" y="168" class="rate">---%</text>
<text x="335" y="168" class="phrase">翩翩</text>
<text x="455" y="168" class="note">(ひらひらと舞う)</text>
<text x="630" y="168" class="note">no data</text>
<text x="20" y="203" class="yao-label">三爻</text>
<rect x="70" y="188" width="200" height="20" class="bar-empty" rx="3"/>
<rect x="70" y="188" width="8" height="20" fill="#FF9800" rx="3"/>
<text x="280" y="203" class="rate">  4%</text>
<text x="335" y="203" class="phrase">無平不陂</text>
<text x="455" y="203" class="note">(平らで傾かぬものなし)</text>
<text x="630" y="203" class="note">n=49</text>
<text x="20" y="238" class="yao-label">二爻</text>
<rect x="70" y="223" width="200" height="20" class="bar-empty" rx="3"/>
<rect x="70" y="223" width="200" height="20" fill="#4CAF50" rx="3"/>
<text x="280" y="238" class="rate">100%</text>
<text x="335" y="238" class="phrase">包荒</text>
<text x="455" y="238" class="note">(荒れを包む)</text>
<text x="630" y="238" class="note">n=2</text>
<text x="20" y="273" class="yao-label">初爻</text>
<rect x="70" y="258" width="200" height="20" class="bar-empty" rx="3"/>
<text x="280" y="273" class="rate">---%</text>
<text x="335" y="273" class="phrase">抜茅茹</text>
<text x="455" y="273" class="note">(茅を抜く)</text>
<text x="630" y="273" class="note">no data</text>
<line x1="20" y1="310" x2="680" y2="310" stroke="#ccc"/>
<text x="20" y="335" class="note">総事例数: 57件, 全体成功率: 8.8%</text>
</svg>