<svg xmlns="http://www.w3.org/2000/svg" width="700" height="350" viewBox="0 0 700 350">
<style>
  .title { font: bold 18px sans-serif; fill: #333; }
  .subtitle { font: 14px sans-serif; fill: #666; }
  .yao-label { font: 14px sans-serif; fill: #333; }
  .rate { font: bold 14px monospace; fill: #333; }
  .phrase { font: 12px sans-serif; fill: #555; }
  .note { font: 11px sans-serif; fill: #888; }
  .bar-bg { fill: #e0e0e0; }
  .bar-fill { fill: #4CAF50; }
  .bar-empty { fill: #f5f5f5; stroke: #ccc; }
</style>
<rect width="700" height="350" fill="white"/>
<text x="20" y="30" class="title">天山遯</text>
<text x="20" y="50" class="subtitle">退却・隠遁・避難</text>
<line x1="20" y1="60" x2="680" y2="60" stroke="#ccc"/>
<text x="20" y="98" class="yao-label">上爻</text>
<rect x="70" y="83" width="200" height="20" class="bar-empty" rx="3"/>
<text x="280" y="98" class="rate">  0%</text>
<text x="335" y="98" class="phrase">肥遯</text>
<text x="455" y="98" class="note">(肥えて遯れる)</text>
<text x="630" y="98" class="note">n=1</text>
<text x="20" y="133" class="yao-label">五爻</text>
<rect x="70" y="118" width="200" height="20" class="bar-empty" rx="3"/>
<rect x="70" y="118" width="18" height="20" fill="#FF9800" rx="3"/>
<text x="280" y="133" class="rate">  9%</text>
<text x="335" y="133" class="phrase">嘉遯</text>
<text x="455" y="133" class="note">(嘉して遯れる)</text>
<text x="630" y="133" class="note">n=65</text>
<text x="20" y="168" class="yao-label">四爻</text>
<rect x="70" y="153" width="200" height="20" class="bar-empty" rx="3"/>
<rect x="70" y="153" width="8" height="20" fill="#FF9800" rx="3"/>
<text x="280" y="168" class="rate">  4%</text>
<text x="335" y="168" class="phrase">好遯</text>
<text x="455" y="168" class="note">(好んで遯れる)</text>
<text x="630" y="168" class="note">n=50</text>
<text x="20" y="203" class="yao-label">三爻</text>
<rect x="70" y="188" width="200" height="20" class="bar-empty" rx="3"/>
<rect x="70" y="188" width="175" height="20" fill="#4CAF50" rx="3"/>
<text x="280" y="203" class="rate"> 88%</text>
<text x="335" y="203" class="phrase">係遯</text>
<text x="455" y="203" class="note">(係わりて遯れる)</text>
<text x="630" y="203" class="note">n=170</text>
<text x="20" y="238" class="yao-label">二爻</text>
<rect x="70" y="223" width="200" height="20" class="bar-empty" rx="3"/>
<rect x="70" y="223" width="190" height="20" fill="#4CAF50" rx="3"/>
<text x="280" y="238" class="rate"> 95%</text>
<text x="335" y="238" class="phrase">執之用黄牛</text>
<text x="455" y="238" class="note">(黄牛の革で執る)</text>
<text x="630" y="238" class="note">n=43</text>
<text x="20" y="273" class="yao-label">初爻</text>
<rect x="70" y="258" width="200" height="20" class="bar-empty" rx="3"/>
<text x="280" y="273" class="rate">---%</text>
<text x="335" y="273" class="phrase">遯尾</text>
<text x="455" y="273" class="note">(尾で遯れる)</text>
<text x="630" y="273" class="note">no data</text>
<line x1="20" y1="310" x2="680" y2="310" stroke="#ccc"/>
<text x="20" y="335" class="note">総事例数: 329件, 全体成功率: 60.2%</text>
</svg>