<svg xmlns="http://www.w3.org/2000/svg" width="700" height="350" viewBox="0 0 700 350">
<style>
  .title { font: bold 18px sans-serif; fill: #333; }
  .subtitle { font: 14px sans-serif; fill: #666; }
  .yao-label { font: 14px sans-serif; fill: #333; }
  .rate { font: bold 14px monospace; fill: #333; }
  .phrase { font: 12px sans-serif; fill: #555; }
  .note { font: 11px sans-serif; fill: #888; }
  .bar-bg { fill: #e0e0e0; }
  .bar-fill { fill: #4CAF50; }
  .bar-empty { fill: #f5f5f5; stroke: #ccc; }
</style>
<rect width="700" height="350" fill="white"/>
<text x="20" y="30" class="title">沢火革</text>
<text x="20" y="50" class="subtitle">革命・変革・刷新</text>
<line x1="20" y1="60" x2="680" y2="60" stroke="#ccc"/>
<text x="20" y="98" class="yao-label">上爻</text>
<rect x="70" y="83" width="200" height="20" class="bar-empty" rx="3"/>
<rect x="70" y="83" width="100" height="20" fill="#8BC34A" rx="3"/>
<text x="280" y="98" class="rate"> 50%</text>
<text x="335" y="98" class="phrase">君子豹変</text>
<text x="455" y="98" class="note">(君子は豹のごとく変ず)</text>
<text x="630" y="98" class="note">n=2</text>
<text x="20" y="133" class="yao-label">五爻</text>
<rect x="70" y="118" width="200" height="20" class="bar-empty" rx="3"/>
<rect x="70" y="118" width="200" height="20" fill="#4CAF50" rx="3"/>
<text x="280" y="133" class="rate">100%</text>
<text x="335" y="133" class="phrase">大人虎変</text>
<text x="455" y="133" class="note">(大人は虎のごとく変ず)</text>
<text x="630" y="133" class="note">n=3</text>
<text x="20" y="168" class="yao-label">四爻</text>
<rect x="70" y="153" width="200" height="20" class="bar-empty" rx="3"/>
<text x="280" y="168" class="rate">---%</text>
<text x="335" y="168" class="phrase">悔亡有孚改命</text>
<text x="455" y="168" class="note">(悔い亡び誠ありて命を改む)</text>
<text x="630" y="168" class="note">no data</text>
<text x="20" y="203" class="yao-label">三爻</text>
<rect x="70" y="188" width="200" height="20" class="bar-empty" rx="3"/>
<rect x="70" y="188" width="171" height="20" fill="#4CAF50" rx="3"/>
<text x="280" y="203" class="rate"> 86%</text>
<text x="335" y="203" class="phrase">征凶</text>
<text x="455" y="203" class="note">(征けば凶)</text>
<text x="630" y="203" class="note">n=7</text>
<text x="20" y="238" class="yao-label">二爻</text>
<rect x="70" y="223" width="200" height="20" class="bar-empty" rx="3"/>
<rect x="70" y="223" width="200" height="20" fill="#4CAF50" rx="3"/>
<text x="280" y="238" class="rate">100%</text>
<text x="335" y="238" class="phrase">已日乃革之</text>
<text x="455" y="238" class="note">(已の日に革める)</text>
<text x="630" y="238" class="note">n=19</text>
<text x="20" y="273" class="yao-label">初爻</text>
<rect x="70" y="258" width="200" height="20" class="bar-empty" rx="3"/>
<text x="280" y="273" class="rate">---%</text>
<text x="335" y="273" class="phrase">鞏用黄牛之革</text>
<text x="455" y="273" class="note">(黄牛の革で固める)</text>
<text x="630" y="273" class="note">no data</text>
<line x1="20" y1="310" x2="680" y2="310" stroke="#ccc"/>
<text x="20" y="335" class="note">総事例数: 31件, 全体成功率: 93.5%</text>
</svg>