<svg xmlns="http://www.w3.org/2000/svg" width="700" height="350" viewBox="0 0 700 350">
<style>
  .title { font: bold 18px sans-serif; fill: #333; }
  .subtitle { font: 14px sans-serif; fill: #666; }
  .yao-label { font: 14px sans-serif; fill: #333; }
  .rate { font: bold 14px monospace; fill: #333; }
  .phrase { font: 12px sans-serif; fill: #555; }
  .note { font: 11px sans-serif; fill: #888; }
  .bar-bg { fill: #e0e0e0; }
  .bar-fill { fill: #4CAF50; }
  .bar-empty { fill: #f5f5f5; stroke: #ccc; }
</style>
<rect width="700" height="350" fill="white"/>
<text x="20" y="30" class="title">震為雷</text>
<text x="20" y="50" class="subtitle">衝撃・覚醒・行動</text>
<line x1="20" y1="60" x2="680" y2="60" stroke="#ccc"/>
<text x="20" y="98" class="yao-label">上爻</text>
<rect x="70" y="83" width="200" height="20" class="bar-empty" rx="3"/>
<text x="280" y="98" class="rate">---%</text>
<text x="335" y="98" class="phrase">震索索</text>
<text x="455" y="98" class="note">(雷に索索たり)</text>
<text x="630" y="98" class="note">no data</text>
<text x="20" y="133" class="yao-label">五爻</text>
<rect x="70" y="118" width="200" height="20" class="bar-empty" rx="3"/>
<rect x="70" y="118" width="200" height="20" fill="#4CAF50" rx="3"/>
<text x="280" y="133" class="rate">100%</text>
<text x="335" y="133" class="phrase">震往來厲</text>
<text x="455" y="133" class="note">(雷往来して危うし)</text>
<text x="630" y="133" class="note">n=1</text>
<text x="20" y="168" class="yao-label">四爻</text>
<rect x="70" y="153" width="200" height="20" class="bar-empty" rx="3"/>
<text x="280" y="168" class="rate">---%</text>
<text x="335" y="168" class="phrase">震遂泥</text>
<text x="455" y="168" class="note">(雷ついに泥む)</text>
<text x="630" y="168" class="note">no data</text>
<text x="20" y="203" class="yao-label">三爻</text>
<rect x="70" y="188" width="200" height="20" class="bar-empty" rx="3"/>
<rect x="70" y="188" width="40" height="20" fill="#FF9800" rx="3"/>
<text x="280" y="203" class="rate"> 20%</text>
<text x="335" y="203" class="phrase">震蘇蘇</text>
<text x="455" y="203" class="note">(雷に蘇蘇たり)</text>
<text x="630" y="203" class="note">n=576</text>
<text x="20" y="238" class="yao-label">二爻</text>
<rect x="70" y="223" width="200" height="20" class="bar-empty" rx="3"/>
<rect x="70" y="223" width="177" height="20" fill="#4CAF50" rx="3"/>
<text x="280" y="238" class="rate"> 89%</text>
<text x="335" y="238" class="phrase">震來厲</text>
<text x="455" y="238" class="note">(雷来りて危うし)</text>
<text x="630" y="238" class="note">n=167</text>
<text x="20" y="273" class="yao-label">初爻</text>
<rect x="70" y="258" width="200" height="20" class="bar-empty" rx="3"/>
<rect x="70" y="258" width="123" height="20" fill="#8BC34A" rx="3"/>
<text x="280" y="273" class="rate"> 62%</text>
<text x="335" y="273" class="phrase">震來虩虩</text>
<text x="455" y="273" class="note">(雷来りて恐れおののく)</text>
<text x="630" y="273" class="note">n=26</text>
<line x1="20" y1="310" x2="680" y2="310" stroke="#ccc"/>
<text x="20" y="335" class="note">総事例数: 770件, 全体成功率: 36.8%</text>
</svg>