<svg xmlns="http://www.w3.org/2000/svg" width="700" height="350" viewBox="0 0 700 350">
<style>
  .title { font: bold 18px sans-serif; fill: #333; }
  .subtitle { font: 14px sans-serif; fill: #666; }
  .yao-label { font: 14px sans-serif; fill: #333; }
  .rate { font: bold 14px monospace; fill: #333; }
  .phrase { font: 12px sans-serif; fill: #555; }
  .note { font: 11px sans-serif; fill: #888; }
  .bar-bg { fill: #e0e0e0; }
  .bar-fill { fill: #4CAF50; }
  .bar-empty { fill: #f5f5f5; stroke: #ccc; }
</style>
<rect width="700" height="350" fill="white"/>
<text x="20" y="30" class="title">巽為風</text>
<text x="20" y="50" class="subtitle">従順・浸透・柔軟</text>
<line x1="20" y1="60" x2="680" y2="60" stroke="#ccc"/>
<text x="20" y="98" class="yao-label">上爻</text>
<rect x="70" y="83" width="200" height="20" class="bar-empty" rx="3"/>
<text x="280" y="98" class="rate">  0%</text>
<text x="335" y="98" class="phrase">巽在牀下</text>
<text x="455" y="98" class="note">(巽んで床下に在り)</text>
<text x="630" y="98" class="note">n=1</text>
<text x="20" y="133" class="yao-label">五爻</text>
<rect x="70" y="118" width="200" height="20" class="bar-empty" rx="3"/>
<rect x="70" y="118" width="200" height="20" fill="#4CAF50" rx="3"/>
<text x="280" y="133" class="rate">100%</text>
<text x="335" y="133" class="phrase">貞吉悔亡</text>
<text x="455" y="133" class="note">(貞しければ吉、悔い亡ぶ)</text>
<text x="630" y="133" class="note">n=3</text>
<text x="20" y="168" class="yao-label">四爻</text>
<rect x="70" y="153" width="200" height="20" class="bar-empty" rx="3"/>
<text x="280" y="168" class="rate">  0%</text>
<text x="335" y="168" class="phrase">悔亡田獲三品</text>
<text x="455" y="168" class="note">(悔い亡び田に三品を獲る)</text>
<text x="630" y="168" class="note">n=3</text>
<text x="20" y="203" class="yao-label">三爻</text>
<rect x="70" y="188" width="200" height="20" class="bar-empty" rx="3"/>
<rect x="70" y="188" width="114" height="20" fill="#8BC34A" rx="3"/>
<text x="280" y="203" class="rate"> 57%</text>
<text x="335" y="203" class="phrase">頻巽</text>
<text x="455" y="203" class="note">(頻りに巽ぶ)</text>
<text x="630" y="203" class="note">n=56</text>
<text x="20" y="238" class="yao-label">二爻</text>
<rect x="70" y="223" width="200" height="20" class="bar-empty" rx="3"/>
<rect x="70" y="223" width="189" height="20" fill="#4CAF50" rx="3"/>
<text x="280" y="238" class="rate"> 95%</text>
<text x="335" y="238" class="phrase">巽在牀下</text>
<text x="455" y="238" class="note">(巽んで床下に在り)</text>
<text x="630" y="238" class="note">n=97</text>
<text x="20" y="273" class="yao-label">初爻</text>
<rect x="70" y="258" width="200" height="20" class="bar-empty" rx="3"/>
<rect x="70" y="258" width="8" height="20" fill="#FF9800" rx="3"/>
<text x="280" y="273" class="rate">  4%</text>
<text x="335" y="273" class="phrase">進退</text>
<text x="455" y="273" class="note">(進退す)</text>
<text x="630" y="273" class="note">n=23</text>
<line x1="20" y1="310" x2="680" y2="310" stroke="#ccc"/>
<text x="20" y="335" class="note">総事例数: 183件, 全体成功率: 69.9%</text>
</svg>