<svg xmlns="http://www.w3.org/2000/svg" width="700" height="350" viewBox="0 0 700 350">
<style>
  .title { font: bold 18px sans-serif; fill: #333; }
  .subtitle { font: 14px sans-serif; fill: #666; }
  .yao-label { font: 14px sans-serif; fill: #333; }
  .rate { font: bold 14px monospace; fill: #333; }
  .phrase { font: 12px sans-serif; fill: #555; }
  .note { font: 11px sans-serif; fill: #888; }
  .bar-bg { fill: #e0e0e0; }
  .bar-fill { fill: #4CAF50; }
  .bar-empty { fill: #f5f5f5; stroke: #ccc; }
</style>
<rect width="700" height="350" fill="white"/>
<text x="20" y="30" class="title">水沢節</text>
<text x="20" y="50" class="subtitle">節度・制限・節約</text>
<line x1="20" y1="60" x2="680" y2="60" stroke="#ccc"/>
<text x="20" y="98" class="yao-label">上爻</text>
<rect x="70" y="83" width="200" height="20" class="bar-empty" rx="3"/>
<text x="280" y="98" class="rate">  0%</text>
<text x="335" y="98" class="phrase">苦節</text>
<text x="455" y="98" class="note">(苦しんで節す)</text>
<text x="630" y="98" class="note">n=2</text>
<text x="20" y="133" class="yao-label">五爻</text>
<rect x="70" y="118" width="200" height="20" class="bar-empty" rx="3"/>
<rect x="70" y="118" width="44" height="20" fill="#FF9800" rx="3"/>
<text x="280" y="133" class="rate"> 22%</text>
<text x="335" y="133" class="phrase">甘節</text>
<text x="455" y="133" class="note">(甘んじて節す)</text>
<text x="630" y="133" class="note">n=9</text>
<text x="20" y="168" class="yao-label">四爻</text>
<rect x="70" y="153" width="200" height="20" class="bar-empty" rx="3"/>
<text x="280" y="168" class="rate">  0%</text>
<text x="335" y="168" class="phrase">安節</text>
<text x="455" y="168" class="note">(安んじて節す)</text>
<text x="630" y="168" class="note">n=10</text>
<text x="20" y="203" class="yao-label">三爻</text>
<rect x="70" y="188" width="200" height="20" class="bar-empty" rx="3"/>
<rect x="70" y="188" width="52" height="20" fill="#FF9800" rx="3"/>
<text x="280" y="203" class="rate"> 26%</text>
<text x="335" y="203" class="phrase">不節若則嗟若</text>
<text x="455" y="203" class="note">(節せざれば則ち嗟く)</text>
<text x="630" y="203" class="note">n=23</text>
<text x="20" y="238" class="yao-label">二爻</text>
<rect x="70" y="223" width="200" height="20" class="bar-empty" rx="3"/>
<rect x="70" y="223" width="172" height="20" fill="#4CAF50" rx="3"/>
<text x="280" y="238" class="rate"> 86%</text>
<text x="335" y="238" class="phrase">不出門庭</text>
<text x="455" y="238" class="note">(門庭を出ず)</text>
<text x="630" y="238" class="note">n=137</text>
<text x="20" y="273" class="yao-label">初爻</text>
<rect x="70" y="258" width="200" height="20" class="bar-empty" rx="3"/>
<text x="280" y="273" class="rate">---%</text>
<text x="335" y="273" class="phrase">不出戸庭</text>
<text x="455" y="273" class="note">(戸庭を出ず)</text>
<text x="630" y="273" class="note">no data</text>
<line x1="20" y1="310" x2="680" y2="310" stroke="#ccc"/>
<text x="20" y="335" class="note">総事例数: 181件, 全体成功率: 69.6%</text>
</svg>