<?xml version="1.0" encoding="UTF-8"?>
<svg xmlns="http://www.w3.org/2000/svg" width="885" height="935" viewBox="0 0 885 935">
<defs>
  <marker id="arrowhead" markerWidth="10" markerHeight="7" refX="9" refY="3.5" orient="auto">
    <polygon points="0 0, 10 3.5, 0 7" fill="#666"/>
  </marker>
  <marker id="arrowhead-success" markerWidth="10" markerHeight="7" refX="9" refY="3.5" orient="auto">
    <polygon points="0 0, 10 3.5, 0 7" fill="#2a2"/>
  </marker>
  <marker id="arrowhead-fail" markerWidth="10" markerHeight="7" refX="9" refY="3.5" orient="auto">
    <polygon points="0 0, 10 3.5, 0 7" fill="#c44"/>
  </marker>
</defs>
<rect width="100%" height="100%" fill="#fafafa"/>
<text x="442.5" y="30" text-anchor="middle" font-family="sans-serif" font-size="20" font-weight="bold" fill="#333">64卦遷移マップ（10件以上の遷移）</text>
<rect x="85" y="85" width="80" height="80" fill="#fff5e6" stroke="#ccc" stroke-width="0.5"/>
<rect x="165" y="85" width="80" height="80" fill="#fff5e6" stroke="#ccc" stroke-width="0.5"/>
<rect x="245" y="85" width="80" height="80" fill="#fff5e6" stroke="#ccc" stroke-width="0.5"/>
<rect x="325" y="85" width="80" height="80" fill="#fff5e6" stroke="#ccc" stroke-width="0.5"/>
<rect x="405" y="85" width="80" height="80" fill="#fff5e6" stroke="#ccc" stroke-width="0.5"/>
<rect x="485" y="85" width="80" height="80" fill="#fff5e6" stroke="#ccc" stroke-width="0.5"/>
<rect x="565" y="85" width="80" height="80" fill="#fff5e6" stroke="#ccc" stroke-width="0.5"/>
<rect x="645" y="85" width="80" height="80" fill="#fff5e6" stroke="#ccc" stroke-width="0.5"/>
<rect x="85" y="165" width="80" height="80" fill="#e6f7ff" stroke="#ccc" stroke-width="0.5"/>
<rect x="165" y="165" width="80" height="80" fill="#e6f7ff" stroke="#ccc" stroke-width="0.5"/>
<rect x="245" y="165" width="80" height="80" fill="#e6f7ff" stroke="#ccc" stroke-width="0.5"/>
<rect x="325" y="165" width="80" height="80" fill="#e6f7ff" stroke="#ccc" stroke-width="0.5"/>
<rect x="405" y="165" width="80" height="80" fill="#e6f7ff" stroke="#ccc" stroke-width="0.5"/>
<rect x="485" y="165" width="80" height="80" fill="#e6f7ff" stroke="#ccc" stroke-width="0.5"/>
<rect x="565" y="165" width="80" height="80" fill="#e6f7ff" stroke="#ccc" stroke-width="0.5"/>
<rect x="645" y="165" width="80" height="80" fill="#e6f7ff" stroke="#ccc" stroke-width="0.5"/>
<rect x="85" y="245" width="80" height="80" fill="#fff0f0" stroke="#ccc" stroke-width="0.5"/>
<rect x="165" y="245" width="80" height="80" fill="#fff0f0" stroke="#ccc" stroke-width="0.5"/>
<rect x="245" y="245" width="80" height="80" fill="#fff0f0" stroke="#ccc" stroke-width="0.5"/>
<rect x="325" y="245" width="80" height="80" fill="#fff0f0" stroke="#ccc" stroke-width="0.5"/>
<rect x="405" y="245" width="80" height="80" fill="#fff0f0" stroke="#ccc" stroke-width="0.5"/>
<rect x="485" y="245" width="80" height="80" fill="#fff0f0" stroke="#ccc" stroke-width="0.5"/>
<rect x="565" y="245" width="80" height="80" fill="#fff0f0" stroke="#ccc" stroke-width="0.5"/>
<rect x="645" y="245" width="80" height="80" fill="#fff0f0" stroke="#ccc" stroke-width="0.5"/>
<rect x="85" y="325" width="80" height="80" fill="#f0ffe6" stroke="#ccc" stroke-width="0.5"/>
<rect x="165" y="325" width="80" height="80" fill="#f0ffe6" stroke="#ccc" stroke-width="0.5"/>
<rect x="245" y="325" width="80" height="80" fill="#f0ffe6" stroke="#ccc" stroke-width="0.5"/>
<rect x="325" y="325" width="80" height="80" fill="#f0ffe6" stroke="#ccc" stroke-width="0.5"/>
<rect x="405" y="325" width="80" height="80" fill="#f0ffe6" stroke="#ccc" stroke-width="0.5"/>
<rect x="485" y="325" width="80" height="80" fill="#f0ffe6" stroke="#ccc" stroke-width="0.5"/>
<rect x="565" y="325" width="80" height="80" fill="#f0ffe6" stroke="#ccc" stroke-width="0.5"/>
<rect x="645" y="325" width="80" height="80" fill="#f0ffe6" stroke="#ccc" stroke-width="0.5"/>
<rect x="85" y="405" width="80" height="80" fill="#e6ffe6" stroke="#ccc" stroke-width="0.5"/>
<rect x="165" y="405" width="80" height="80" fill="#e6ffe6" stroke="#ccc" stroke-width="0.5"/>
<rect x="245" y="405" width="80" height="80" fill="#e6ffe6" stroke="#ccc" stroke-width="0.5"/>
<rect x="325" y="405" width="80" height="80" fill="#e6ffe6" stroke="#ccc" stroke-width="0.5"/>
<rect x="405" y="405" width="80" height="80" fill="#e6ffe6" stroke="#ccc" stroke-width="0.5"/>
<rect x="485" y="405" width="80" height="80" fill="#e6ffe6" stroke="#ccc" stroke-width="0.5"/>
<rect x="565" y="405" width="80" height="80" fill="#e6ffe6" stroke="#ccc" stroke-width="0.5"/>
<rect x="645" y="405" width="80" height="80" fill="#e6ffe6" stroke="#ccc" stroke-width="0.5"/>
<rect x="85" y="485" width="80" height="80" fill="#e6e6ff" stroke="#ccc" stroke-width="0.5"/>
<rect x="165" y="485" width="80" height="80" fill="#e6e6ff" stroke="#ccc" stroke-width="0.5"/>
<rect x="245" y="485" width="80" height="80" fill="#e6e6ff" stroke="#ccc" stroke-width="0.5"/>
<rect x="325" y="485" width="80" height="80" fill="#e6e6ff" stroke="#ccc" stroke-width="0.5"/>
<rect x="405" y="485" width="80" height="80" fill="#e6e6ff" stroke="#ccc" stroke-width="0.5"/>
<rect x="485" y="485" width="80" height="80" fill="#e6e6ff" stroke="#ccc" stroke-width="0.5"/>
<rect x="565" y="485" width="80" height="80" fill="#e6e6ff" stroke="#ccc" stroke-width="0.5"/>
<rect x="645" y="485" width="80" height="80" fill="#e6e6ff" stroke="#ccc" stroke-width="0.5"/>
<rect x="85" y="565" width="80" height="80" fill="#f5f5dc" stroke="#ccc" stroke-width="0.5"/>
<rect x="165" y="565" width="80" height="80" fill="#f5f5dc" stroke="#ccc" stroke-width="0.5"/>
<rect x="245" y="565" width="80" height="80" fill="#f5f5dc" stroke="#ccc" stroke-width="0.5"/>
<rect x="325" y="565" width="80" height="80" fill="#f5f5dc" stroke="#ccc" stroke-width="0.5"/>
<rect x="405" y="565" width="80" height="80" fill="#f5f5dc" stroke="#ccc" stroke-width="0.5"/>
<rect x="485" y="565" width="80" height="80" fill="#f5f5dc" stroke="#ccc" stroke-width="0.5"/>
<rect x="565" y="565" width="80" height="80" fill="#f5f5dc" stroke="#ccc" stroke-width="0.5"/>
<rect x="645" y="565" width="80" height="80" fill="#f5f5dc" stroke="#ccc" stroke-width="0.5"/>
<rect x="85" y="645" width="80" height="80" fill="#f0f0f0" stroke="#ccc" stroke-width="0.5"/>
<rect x="165" y="645" width="80" height="80" fill="#f0f0f0" stroke="#ccc" stroke-width="0.5"/>
<rect x="245" y="645" width="80" height="80" fill="#f0f0f0" stroke="#ccc" stroke-width="0.5"/>
<rect x="325" y="645" width="80" height="80" fill="#f0f0f0" stroke="#ccc" stroke-width="0.5"/>
<rect x="405" y="645" width="80" height="80" fill="#f0f0f0" stroke="#ccc" stroke-width="0.5"/>
<rect x="485" y="645" width="80" height="80" fill="#f0f0f0" stroke="#ccc" stroke-width="0.5"/>
<rect x="565" y="645" width="80" height="80" fill="#f0f0f0" stroke="#ccc" stroke-width="0.5"/>
<rect x="645" y="645" width="80" height="80" fill="#f0f0f0" stroke="#ccc" stroke-width="0.5"/>
<rect x="85" y="85" width="640" height="640" fill="none" stroke="#999" stroke-width="2"/>
<line x1="245" y1="85" x2="245" y2="725" stroke="#888" stroke-width="1.5" stroke-dasharray="5,3"/>
<line x1="85" y1="245" x2="725" y2="245" stroke="#888" stroke-width="1.5" stroke-dasharray="5,3"/>
<line x1="405" y1="85" x2="405" y2="725" stroke="#888" stroke-width="1.5" stroke-dasharray="5,3"/>
<line x1="85" y1="405" x2="725" y2="405" stroke="#888" stroke-width="1.5" stroke-dasharray="5,3"/>
<line x1="565" y1="85" x2="565" y2="725" stroke="#888" stroke-width="1.5" stroke-dasharray="5,3"/>
<line x1="85" y1="565" x2="725" y2="565" stroke="#888" stroke-width="1.5" stroke-dasharray="5,3"/>
<text x="125.0" y="75" text-anchor="middle" font-family="sans-serif" font-size="14" fill="#333">乾</text>
<text x="65" y="130.0" text-anchor="middle" font-family="sans-serif" font-size="14" fill="#333">乾</text>
<text x="205.0" y="75" text-anchor="middle" font-family="sans-serif" font-size="14" fill="#333">兌</text>
<text x="65" y="210.0" text-anchor="middle" font-family="sans-serif" font-size="14" fill="#333">兌</text>
<text x="285.0" y="75" text-anchor="middle" font-family="sans-serif" font-size="14" fill="#333">離</text>
<text x="65" y="290.0" text-anchor="middle" font-family="sans-serif" font-size="14" fill="#333">離</text>
<text x="365.0" y="75" text-anchor="middle" font-family="sans-serif" font-size="14" fill="#333">震</text>
<text x="65" y="370.0" text-anchor="middle" font-family="sans-serif" font-size="14" fill="#333">震</text>
<text x="445.0" y="75" text-anchor="middle" font-family="sans-serif" font-size="14" fill="#333">巽</text>
<text x="65" y="450.0" text-anchor="middle" font-family="sans-serif" font-size="14" fill="#333">巽</text>
<text x="525.0" y="75" text-anchor="middle" font-family="sans-serif" font-size="14" fill="#333">坎</text>
<text x="65" y="530.0" text-anchor="middle" font-family="sans-serif" font-size="14" fill="#333">坎</text>
<text x="605.0" y="75" text-anchor="middle" font-family="sans-serif" font-size="14" fill="#333">艮</text>
<text x="65" y="610.0" text-anchor="middle" font-family="sans-serif" font-size="14" fill="#333">艮</text>
<text x="685.0" y="75" text-anchor="middle" font-family="sans-serif" font-size="14" fill="#333">坤</text>
<text x="65" y="690.0" text-anchor="middle" font-family="sans-serif" font-size="14" fill="#333">坤</text>
<text x="405.0" y="55" text-anchor="middle" font-family="sans-serif" font-size="12" fill="#666">下卦</text>
<text x="45" y="405.0" text-anchor="middle" font-family="sans-serif" font-size="12" fill="#666" transform="rotate(-90,45,405.0)">上卦</text>
<text x="125.0" y="129.0" text-anchor="middle" font-family="sans-serif" font-size="16" font-weight="bold" fill="#444">乾</text>
<text x="125.0" y="147.0" text-anchor="middle" font-family="sans-serif" font-size="9" fill="#888">727</text>
<text x="685.0" y="689.0" text-anchor="middle" font-family="sans-serif" font-size="16" font-weight="bold" fill="#444">坤</text>
<text x="685.0" y="707.0" text-anchor="middle" font-family="sans-serif" font-size="9" fill="#888">1049</text>
<text x="365.0" y="529.0" text-anchor="middle" font-family="sans-serif" font-size="16" font-weight="bold" fill="#444">水</text>
<text x="365.0" y="547.0" text-anchor="middle" font-family="sans-serif" font-size="9" fill="#888">21</text>
<text x="525.0" y="609.0" text-anchor="middle" font-family="sans-serif" font-size="16" font-weight="bold" fill="#444">山</text>
<text x="525.0" y="627.0" text-anchor="middle" font-family="sans-serif" font-size="9" fill="#888">8</text>
<text x="125.0" y="529.0" text-anchor="middle" font-family="sans-serif" font-size="16" font-weight="bold" fill="#444">水</text>
<text x="525.0" y="129.0" text-anchor="middle" font-family="sans-serif" font-size="16" font-weight="bold" fill="#444">天</text>
<text x="525.0" y="147.0" text-anchor="middle" font-family="sans-serif" font-size="9" fill="#888">2</text>
<text x="525.0" y="689.0" text-anchor="middle" font-family="sans-serif" font-size="16" font-weight="bold" fill="#444">地</text>
<text x="525.0" y="707.0" text-anchor="middle" font-family="sans-serif" font-size="9" fill="#888">8</text>
<text x="685.0" y="529.0" text-anchor="middle" font-family="sans-serif" font-size="16" font-weight="bold" fill="#444">水</text>
<text x="685.0" y="547.0" text-anchor="middle" font-family="sans-serif" font-size="9" fill="#888">2</text>
<text x="125.0" y="449.0" text-anchor="middle" font-family="sans-serif" font-size="16" font-weight="bold" fill="#444">風</text>
<text x="125.0" y="467.0" text-anchor="middle" font-family="sans-serif" font-size="9" fill="#888">1</text>
<text x="205.0" y="129.0" text-anchor="middle" font-family="sans-serif" font-size="16" font-weight="bold" fill="#444">天</text>
<text x="205.0" y="147.0" text-anchor="middle" font-family="sans-serif" font-size="9" fill="#888">8</text>
<text x="125.0" y="689.0" text-anchor="middle" font-family="sans-serif" font-size="16" font-weight="bold" fill="#444">地</text>
<text x="125.0" y="707.0" text-anchor="middle" font-family="sans-serif" font-size="9" fill="#888">4</text>
<text x="685.0" y="129.0" text-anchor="middle" font-family="sans-serif" font-size="16" font-weight="bold" fill="#444">天</text>
<text x="685.0" y="147.0" text-anchor="middle" font-family="sans-serif" font-size="9" fill="#888">1</text>
<text x="285.0" y="129.0" text-anchor="middle" font-family="sans-serif" font-size="16" font-weight="bold" fill="#444">天</text>
<text x="285.0" y="147.0" text-anchor="middle" font-family="sans-serif" font-size="9" fill="#888">8</text>
<text x="125.0" y="289.0" text-anchor="middle" font-family="sans-serif" font-size="16" font-weight="bold" fill="#444">火</text>
<text x="125.0" y="307.0" text-anchor="middle" font-family="sans-serif" font-size="9" fill="#888">3</text>
<text x="605.0" y="689.0" text-anchor="middle" font-family="sans-serif" font-size="16" font-weight="bold" fill="#444">地</text>
<text x="605.0" y="707.0" text-anchor="middle" font-family="sans-serif" font-size="9" fill="#888">5</text>
<text x="685.0" y="369.0" text-anchor="middle" font-family="sans-serif" font-size="16" font-weight="bold" fill="#444">雷</text>
<text x="365.0" y="209.0" text-anchor="middle" font-family="sans-serif" font-size="16" font-weight="bold" fill="#444">沢</text>
<text x="365.0" y="227.0" text-anchor="middle" font-family="sans-serif" font-size="9" fill="#888">1</text>
<text x="445.0" y="609.0" text-anchor="middle" font-family="sans-serif" font-size="16" font-weight="bold" fill="#444">山</text>
<text x="445.0" y="627.0" text-anchor="middle" font-family="sans-serif" font-size="9" fill="#888">2</text>
<text x="205.0" y="689.0" text-anchor="middle" font-family="sans-serif" font-size="16" font-weight="bold" fill="#444">地</text>
<text x="685.0" y="449.0" text-anchor="middle" font-family="sans-serif" font-size="16" font-weight="bold" fill="#444">風</text>
<text x="685.0" y="467.0" text-anchor="middle" font-family="sans-serif" font-size="9" fill="#888">2</text>
<text x="365.0" y="289.0" text-anchor="middle" font-family="sans-serif" font-size="16" font-weight="bold" fill="#444">火</text>
<text x="365.0" y="307.0" text-anchor="middle" font-family="sans-serif" font-size="9" fill="#888">1</text>
<text x="285.0" y="609.0" text-anchor="middle" font-family="sans-serif" font-size="16" font-weight="bold" fill="#444">山</text>
<text x="285.0" y="627.0" text-anchor="middle" font-family="sans-serif" font-size="9" fill="#888">1</text>
<text x="685.0" y="609.0" text-anchor="middle" font-family="sans-serif" font-size="16" font-weight="bold" fill="#444">山</text>
<text x="685.0" y="627.0" text-anchor="middle" font-family="sans-serif" font-size="9" fill="#888">12</text>
<text x="365.0" y="689.0" text-anchor="middle" font-family="sans-serif" font-size="16" font-weight="bold" fill="#444">地</text>
<text x="365.0" y="707.0" text-anchor="middle" font-family="sans-serif" font-size="9" fill="#888">2</text>
<text x="365.0" y="129.0" text-anchor="middle" font-family="sans-serif" font-size="16" font-weight="bold" fill="#444">天</text>
<text x="365.0" y="147.0" text-anchor="middle" font-family="sans-serif" font-size="9" fill="#888">11</text>
<text x="125.0" y="609.0" text-anchor="middle" font-family="sans-serif" font-size="16" font-weight="bold" fill="#444">山</text>
<text x="125.0" y="627.0" text-anchor="middle" font-family="sans-serif" font-size="9" fill="#888">1</text>
<text x="365.0" y="609.0" text-anchor="middle" font-family="sans-serif" font-size="16" font-weight="bold" fill="#444">山</text>
<text x="445.0" y="209.0" text-anchor="middle" font-family="sans-serif" font-size="16" font-weight="bold" fill="#444">沢</text>
<text x="445.0" y="227.0" text-anchor="middle" font-family="sans-serif" font-size="9" fill="#888">1</text>
<text x="525.0" y="529.0" text-anchor="middle" font-family="sans-serif" font-size="16" font-weight="bold" fill="#444">坎</text>
<text x="525.0" y="547.0" text-anchor="middle" font-family="sans-serif" font-size="9" fill="#888">1973</text>
<text x="285.0" y="289.0" text-anchor="middle" font-family="sans-serif" font-size="16" font-weight="bold" fill="#444">離</text>
<text x="285.0" y="307.0" text-anchor="middle" font-family="sans-serif" font-size="9" fill="#888">684</text>
<text x="605.0" y="209.0" text-anchor="middle" font-family="sans-serif" font-size="16" font-weight="bold" fill="#444">沢</text>
<text x="445.0" y="369.0" text-anchor="middle" font-family="sans-serif" font-size="16" font-weight="bold" fill="#444">雷</text>
<text x="445.0" y="387.0" text-anchor="middle" font-family="sans-serif" font-size="9" fill="#888">1</text>
<text x="605.0" y="129.0" text-anchor="middle" font-family="sans-serif" font-size="16" font-weight="bold" fill="#444">天</text>
<text x="605.0" y="147.0" text-anchor="middle" font-family="sans-serif" font-size="9" fill="#888">2</text>
<text x="125.0" y="369.0" text-anchor="middle" font-family="sans-serif" font-size="16" font-weight="bold" fill="#444">雷</text>
<text x="125.0" y="387.0" text-anchor="middle" font-family="sans-serif" font-size="9" fill="#888">2</text>
<text x="685.0" y="289.0" text-anchor="middle" font-family="sans-serif" font-size="16" font-weight="bold" fill="#444">火</text>
<text x="285.0" y="689.0" text-anchor="middle" font-family="sans-serif" font-size="16" font-weight="bold" fill="#444">地</text>
<text x="285.0" y="707.0" text-anchor="middle" font-family="sans-serif" font-size="9" fill="#888">4</text>
<text x="285.0" y="449.0" text-anchor="middle" font-family="sans-serif" font-size="16" font-weight="bold" fill="#444">風</text>
<text x="205.0" y="289.0" text-anchor="middle" font-family="sans-serif" font-size="16" font-weight="bold" fill="#444">火</text>
<text x="205.0" y="307.0" text-anchor="middle" font-family="sans-serif" font-size="9" fill="#888">2</text>
<text x="605.0" y="529.0" text-anchor="middle" font-family="sans-serif" font-size="16" font-weight="bold" fill="#444">水</text>
<text x="605.0" y="547.0" text-anchor="middle" font-family="sans-serif" font-size="9" fill="#888">11</text>
<text x="525.0" y="369.0" text-anchor="middle" font-family="sans-serif" font-size="16" font-weight="bold" fill="#444">雷</text>
<text x="205.0" y="609.0" text-anchor="middle" font-family="sans-serif" font-size="16" font-weight="bold" fill="#444">山</text>
<text x="205.0" y="627.0" text-anchor="middle" font-family="sans-serif" font-size="9" fill="#888">1</text>
<text x="365.0" y="449.0" text-anchor="middle" font-family="sans-serif" font-size="16" font-weight="bold" fill="#444">風</text>
<text x="125.0" y="209.0" text-anchor="middle" font-family="sans-serif" font-size="16" font-weight="bold" fill="#444">沢</text>
<text x="125.0" y="227.0" text-anchor="middle" font-family="sans-serif" font-size="9" fill="#888">2</text>
<text x="445.0" y="129.0" text-anchor="middle" font-family="sans-serif" font-size="16" font-weight="bold" fill="#444">天</text>
<text x="445.0" y="147.0" text-anchor="middle" font-family="sans-serif" font-size="9" fill="#888">1</text>
<text x="685.0" y="209.0" text-anchor="middle" font-family="sans-serif" font-size="16" font-weight="bold" fill="#444">沢</text>
<text x="445.0" y="689.0" text-anchor="middle" font-family="sans-serif" font-size="16" font-weight="bold" fill="#444">地</text>
<text x="445.0" y="707.0" text-anchor="middle" font-family="sans-serif" font-size="9" fill="#888">11</text>
<text x="525.0" y="209.0" text-anchor="middle" font-family="sans-serif" font-size="16" font-weight="bold" fill="#444">沢</text>
<text x="525.0" y="227.0" text-anchor="middle" font-family="sans-serif" font-size="9" fill="#888">6</text>
<text x="445.0" y="529.0" text-anchor="middle" font-family="sans-serif" font-size="16" font-weight="bold" fill="#444">水</text>
<text x="285.0" y="209.0" text-anchor="middle" font-family="sans-serif" font-size="16" font-weight="bold" fill="#444">沢</text>
<text x="445.0" y="289.0" text-anchor="middle" font-family="sans-serif" font-size="16" font-weight="bold" fill="#444">火</text>
<text x="445.0" y="307.0" text-anchor="middle" font-family="sans-serif" font-size="9" fill="#888">1</text>
<text x="365.0" y="369.0" text-anchor="middle" font-family="sans-serif" font-size="16" font-weight="bold" fill="#444">震</text>
<text x="365.0" y="387.0" text-anchor="middle" font-family="sans-serif" font-size="9" fill="#888">1448</text>
<text x="605.0" y="609.0" text-anchor="middle" font-family="sans-serif" font-size="16" font-weight="bold" fill="#444">艮</text>
<text x="605.0" y="627.0" text-anchor="middle" font-family="sans-serif" font-size="9" fill="#888">2200</text>
<text x="605.0" y="449.0" text-anchor="middle" font-family="sans-serif" font-size="16" font-weight="bold" fill="#444">風</text>
<text x="205.0" y="369.0" text-anchor="middle" font-family="sans-serif" font-size="16" font-weight="bold" fill="#444">雷</text>
<text x="205.0" y="387.0" text-anchor="middle" font-family="sans-serif" font-size="9" fill="#888">1</text>
<text x="285.0" y="369.0" text-anchor="middle" font-family="sans-serif" font-size="16" font-weight="bold" fill="#444">雷</text>
<text x="285.0" y="387.0" text-anchor="middle" font-family="sans-serif" font-size="9" fill="#888">2</text>
<text x="605.0" y="289.0" text-anchor="middle" font-family="sans-serif" font-size="16" font-weight="bold" fill="#444">火</text>
<text x="445.0" y="449.0" text-anchor="middle" font-family="sans-serif" font-size="16" font-weight="bold" fill="#444">巽</text>
<text x="445.0" y="467.0" text-anchor="middle" font-family="sans-serif" font-size="9" fill="#888">518</text>
<text x="205.0" y="209.0" text-anchor="middle" font-family="sans-serif" font-size="16" font-weight="bold" fill="#444">兌</text>
<text x="205.0" y="227.0" text-anchor="middle" font-family="sans-serif" font-size="9" fill="#888">682</text>
<text x="525.0" y="449.0" text-anchor="middle" font-family="sans-serif" font-size="16" font-weight="bold" fill="#444">風</text>
<text x="205.0" y="529.0" text-anchor="middle" font-family="sans-serif" font-size="16" font-weight="bold" fill="#444">水</text>
<text x="205.0" y="547.0" text-anchor="middle" font-family="sans-serif" font-size="9" fill="#888">5</text>
<text x="205.0" y="449.0" text-anchor="middle" font-family="sans-serif" font-size="16" font-weight="bold" fill="#444">風</text>
<text x="605.0" y="369.0" text-anchor="middle" font-family="sans-serif" font-size="16" font-weight="bold" fill="#444">雷</text>
<text x="285.0" y="529.0" text-anchor="middle" font-family="sans-serif" font-size="16" font-weight="bold" fill="#444">水</text>
<text x="525.0" y="289.0" text-anchor="middle" font-family="sans-serif" font-size="16" font-weight="bold" fill="#444">火</text>
<text x="525.0" y="307.0" text-anchor="middle" font-family="sans-serif" font-size="9" fill="#888">9</text>
<path d="M 205.0,205.0 Q 249.64466094067262,320.3553390593274 347.32233047033634,347.32233047033634" fill="none" stroke="rgb(220,0,50)" stroke-width="1.8" stroke-opacity="0.41" marker-end="url(#arrowhead)"/>
<path d="M 460.0,430.0 C 485.0,405.0 485.0,455.0 460.0,460.0" fill="none" stroke="rgb(220,180,50)" stroke-width="2.5" stroke-opacity="0.41" marker-end="url(#arrowhead)"/>
<path d="M 445.0,445.0 Q 360.3553390593274,289.6446609406726 222.6776695296637,222.6776695296637" fill="none" stroke="rgb(68,180,50)" stroke-width="2.6" stroke-opacity="0.42" marker-end="url(#arrowhead)"/>
<path d="M 125.0,125.0 Q 141.0,189.0 187.3223304703363,187.3223304703363" fill="none" stroke="rgb(186,180,50)" stroke-width="2.7" stroke-opacity="0.42" marker-end="url(#arrowhead)"/>
<path d="M 205.0,205.0 Q 329.6446609406726,400.3553390593274 507.32233047033634,507.32233047033634" fill="none" stroke="rgb(220,0,50)" stroke-width="2.7" stroke-opacity="0.42" marker-end="url(#arrowhead)"/>
<path d="M 205.0,205.0 Q 279.03805922287444,370.96194077712556 427.32233047033634,427.32233047033634" fill="none" stroke="rgb(220,172,50)" stroke-width="2.9" stroke-opacity="0.42" marker-end="url(#arrowhead)"/>
<path d="M 220.0,190.0 C 245.0,165.0 245.0,215.0 220.0,220.0" fill="none" stroke="rgb(64,180,50)" stroke-width="3.0" stroke-opacity="0.42" marker-end="url(#arrowhead)"/>
<path d="M 685.0,685.0 Q 600.3553390593273,529.6446609406727 462.67766952966366,462.67766952966366" fill="none" stroke="rgb(205,180,50)" stroke-width="3.0" stroke-opacity="0.42" marker-end="url(#arrowhead)"/>
<path d="M 285.0,285.0 Q 301.0,349.0 347.32233047033634,347.32233047033634" fill="none" stroke="rgb(220,14,50)" stroke-width="3.0" stroke-opacity="0.42" marker-end="url(#arrowhead)"/>
<path d="M 140.0,110.0 C 165.0,85.0 165.0,135.0 140.0,140.0" fill="none" stroke="rgb(81,180,50)" stroke-width="3.4" stroke-opacity="0.43" marker-end="url(#arrowhead)"/>
<path d="M 445.0,445.0 Q 519.0380592228744,610.9619407771256 667.3223304703363,667.3223304703363" fill="none" stroke="rgb(147,180,50)" stroke-width="3.9" stroke-opacity="0.43" marker-end="url(#arrowhead)"/>
<path d="M 205.0,205.0 Q 199.6066017177982,130.3933982822018 142.6776695296637,142.6776695296637" fill="none" stroke="rgb(50,180,50)" stroke-width="3.9" stroke-opacity="0.43" marker-end="url(#arrowhead)"/>
<path d="M 365.0,365.0 Q 330.96194077712556,239.0380592228744 222.6776695296637,222.6776695296637" fill="none" stroke="rgb(119,180,50)" stroke-width="4.0" stroke-opacity="0.44" marker-end="url(#arrowhead)"/>
<path d="M 125.0,125.0 Q 169.64466094067262,240.35533905932738 267.32233047033634,267.32233047033634" fill="none" stroke="rgb(109,180,50)" stroke-width="4.0" stroke-opacity="0.44" marker-end="url(#arrowhead)"/>
<path d="M 285.0,285.0 Q 369.6446609406726,440.3553390593274 507.32233047033634,507.32233047033634" fill="none" stroke="rgb(220,0,50)" stroke-width="4.2" stroke-opacity="0.44" marker-end="url(#arrowhead)"/>
<path d="M 285.0,285.0 Q 269.0,221.0 222.6776695296637,222.6776695296637" fill="none" stroke="rgb(56,180,50)" stroke-width="4.2" stroke-opacity="0.44" marker-end="url(#arrowhead)"/>
<path d="M 380.0,350.0 C 405.0,325.0 405.0,375.0 380.0,380.0" fill="none" stroke="rgb(220,27,50)" stroke-width="4.3" stroke-opacity="0.44" marker-end="url(#arrowhead)"/>
<path d="M 125.0,125.0 Q 249.64466094067262,320.3553390593274 427.32233047033634,427.32233047033634" fill="none" stroke="rgb(220,80,50)" stroke-width="4.7" stroke-opacity="0.45" marker-end="url(#arrowhead)"/>
<path d="M 285.0,285.0 Q 329.6446609406726,400.3553390593274 427.32233047033634,427.32233047033634" fill="none" stroke="rgb(220,128,50)" stroke-width="4.7" stroke-opacity="0.45" marker-end="url(#arrowhead)"/>
<path d="M 365.0,365.0 Q 381.0,429.0 427.32233047033634,427.32233047033634" fill="none" stroke="rgb(220,142,50)" stroke-width="4.8" stroke-opacity="0.46" marker-end="url(#arrowhead)"/>
<path d="M 685.0,685.0 Q 669.0,621.0 622.6776695296637,622.6776695296637" fill="none" stroke="rgb(220,177,50)" stroke-width="4.9" stroke-opacity="0.46" marker-end="url(#arrowhead)"/>
<path d="M 445.0,445.0 Q 410.96194077712556,319.03805922287444 302.67766952966366,302.67766952966366" fill="none" stroke="rgb(54,180,50)" stroke-width="4.9" stroke-opacity="0.46" marker-end="url(#arrowhead)"/>
<path d="M 285.0,285.0 Q 449.6446609406726,520.3553390593273 667.3223304703363,667.3223304703363" fill="none" stroke="rgb(220,118,50)" stroke-width="4.9" stroke-opacity="0.46" marker-end="url(#arrowhead)"/>
<path d="M 685.0,685.0 Q 560.3553390593273,489.6446609406726 382.67766952966366,382.67766952966366" fill="none" stroke="rgb(220,45,50)" stroke-width="5.0" stroke-opacity="0.46" marker-end="url(#arrowhead)"/>
<path d="M 445.0,445.0 Q 330.96194077712556,239.0380592228744 142.6776695296637,142.6776695296637" fill="none" stroke="rgb(50,180,50)" stroke-width="5.0" stroke-opacity="0.46" marker-end="url(#arrowhead)"/>
<path d="M 125.0,125.0 Q 209.64466094067262,280.3553390593274 347.32233047033634,347.32233047033634" fill="none" stroke="rgb(152,180,50)" stroke-width="5.0" stroke-opacity="0.47" marker-end="url(#arrowhead)"/>
<path d="M 205.0,205.0 Q 369.6446609406726,440.3553390593274 587.3223304703363,587.3223304703363" fill="none" stroke="rgb(220,96,50)" stroke-width="5.2" stroke-opacity="0.47" marker-end="url(#arrowhead)"/>
<path d="M 300.0,270.0 C 325.0,245.0 325.0,295.0 300.0,300.0" fill="none" stroke="rgb(72,180,50)" stroke-width="5.2" stroke-opacity="0.47" marker-end="url(#arrowhead)"/>
<path d="M 685.0,685.0 Q 530.9619407771256,439.03805922287444 302.67766952966366,302.67766952966366" fill="none" stroke="rgb(69,180,50)" stroke-width="5.4" stroke-opacity="0.49" marker-end="url(#arrowhead)"/>
<path d="M 685.0,685.0 Q 480.3553390593274,409.6446609406726 222.6776695296637,222.6776695296637" fill="none" stroke="rgb(106,180,50)" stroke-width="5.5" stroke-opacity="0.49" marker-end="url(#arrowhead)"/>
<path d="M 685.0,685.0 Q 640.3553390593273,569.6446609406727 542.6776695296637,542.6776695296637" fill="none" stroke="rgb(220,0,50)" stroke-width="5.6" stroke-opacity="0.49" marker-end="url(#arrowhead)"/>
<path d="M 125.0,125.0 Q 289.6446609406726,360.3553390593274 507.32233047033634,507.32233047033634" fill="none" stroke="rgb(220,0,50)" stroke-width="5.6" stroke-opacity="0.50" marker-end="url(#arrowhead)"/>
<path d="M 525.0,525.0 Q 509.0,461.0 462.67766952966366,462.67766952966366" fill="none" stroke="rgb(220,72,50)" stroke-width="5.6" stroke-opacity="0.50" marker-end="url(#arrowhead)"/>
<path d="M 125.0,125.0 Q 329.6446609406726,400.3553390593274 587.3223304703363,587.3223304703363" fill="none" stroke="rgb(220,75,50)" stroke-width="5.7" stroke-opacity="0.50" marker-end="url(#arrowhead)"/>
<path d="M 525.0,525.0 Q 480.3553390593274,409.6446609406726 382.67766952966366,382.67766952966366" fill="none" stroke="rgb(187,180,50)" stroke-width="5.7" stroke-opacity="0.50" marker-end="url(#arrowhead)"/>
<path d="M 205.0,205.0 Q 210.3933982822018,279.6066017177982 267.32233047033634,267.32233047033634" fill="none" stroke="rgb(61,180,50)" stroke-width="5.9" stroke-opacity="0.52" marker-end="url(#arrowhead)"/>
<path d="M 605.0,605.0 Q 589.0,541.0 542.6776695296637,542.6776695296637" fill="none" stroke="rgb(220,0,50)" stroke-width="5.9" stroke-opacity="0.52" marker-end="url(#arrowhead)"/>
<path d="M 365.0,365.0 Q 399.03805922287444,490.96194077712556 507.32233047033634,507.32233047033634" fill="none" stroke="rgb(220,0,50)" stroke-width="6.0" stroke-opacity="0.52" marker-end="url(#arrowhead)"/>
<path d="M 285.0,285.0 Q 409.6446609406726,480.3553390593274 587.3223304703363,587.3223304703363" fill="none" stroke="rgb(220,95,50)" stroke-width="6.0" stroke-opacity="0.52" marker-end="url(#arrowhead)"/>
<path d="M 605.0,605.0 Q 450.96194077712556,359.03805922287444 222.6776695296637,222.6776695296637" fill="none" stroke="rgb(78,180,50)" stroke-width="6.2" stroke-opacity="0.54" marker-end="url(#arrowhead)"/>
<path d="M 285.0,285.0 Q 250.9619407771256,159.0380592228744 142.6776695296637,142.6776695296637" fill="none" stroke="rgb(50,180,50)" stroke-width="6.2" stroke-opacity="0.54" marker-end="url(#arrowhead)"/>
<path d="M 605.0,605.0 Q 490.96194077712556,399.03805922287444 302.67766952966366,302.67766952966366" fill="none" stroke="rgb(70,180,50)" stroke-width="6.2" stroke-opacity="0.54" marker-end="url(#arrowhead)"/>
<path d="M 365.0,365.0 Q 449.6446609406726,520.3553390593273 587.3223304703363,587.3223304703363" fill="none" stroke="rgb(220,55,50)" stroke-width="6.3" stroke-opacity="0.55" marker-end="url(#arrowhead)"/>
<path d="M 365.0,365.0 Q 359.6066017177982,290.3933982822018 302.67766952966366,302.67766952966366" fill="none" stroke="rgb(64,180,50)" stroke-width="6.4" stroke-opacity="0.55" marker-end="url(#arrowhead)"/>
<path d="M 525.0,525.0 Q 450.96194077712556,359.03805922287444 302.67766952966366,302.67766952966366" fill="none" stroke="rgb(69,180,50)" stroke-width="6.5" stroke-opacity="0.57" marker-end="url(#arrowhead)"/>
<path d="M 525.0,525.0 Q 370.96194077712556,279.03805922287444 142.6776695296637,142.6776695296637" fill="none" stroke="rgb(53,180,50)" stroke-width="6.6" stroke-opacity="0.57" marker-end="url(#arrowhead)"/>
<path d="M 125.0,125.0 Q 369.6446609406726,440.3553390593274 667.3223304703363,667.3223304703363" fill="none" stroke="rgb(220,20,50)" stroke-width="6.7" stroke-opacity="0.59" marker-end="url(#arrowhead)"/>
<path d="M 685.0,685.0 Q 450.96194077712556,359.03805922287444 142.6776695296637,142.6776695296637" fill="none" stroke="rgb(53,180,50)" stroke-width="6.7" stroke-opacity="0.59" marker-end="url(#arrowhead)"/>
<path d="M 525.0,525.0 Q 410.96194077712556,319.03805922287444 222.6776695296637,222.6776695296637" fill="none" stroke="rgb(54,180,50)" stroke-width="6.8" stroke-opacity="0.60" marker-end="url(#arrowhead)"/>
<path d="M 540.0,510.0 C 565.0,485.0 565.0,535.0 540.0,540.0" fill="none" stroke="rgb(220,0,50)" stroke-width="6.9" stroke-opacity="0.60" marker-end="url(#arrowhead)"/>
<path d="M 365.0,365.0 Q 290.96194077712556,199.0380592228744 142.6776695296637,142.6776695296637" fill="none" stroke="rgb(61,180,50)" stroke-width="6.9" stroke-opacity="0.61" marker-end="url(#arrowhead)"/>
<path d="M 445.0,445.0 Q 489.6446609406726,560.3553390593273 587.3223304703363,587.3223304703363" fill="none" stroke="rgb(220,162,50)" stroke-width="7.0" stroke-opacity="0.62" marker-end="url(#arrowhead)"/>
<path d="M 605.0,605.0 Q 530.9619407771256,439.03805922287444 382.67766952966366,382.67766952966366" fill="none" stroke="rgb(189,180,50)" stroke-width="7.0" stroke-opacity="0.62" marker-end="url(#arrowhead)"/>
<path d="M 605.0,605.0 Q 410.96194077712556,319.03805922287444 142.6776695296637,142.6776695296637" fill="none" stroke="rgb(52,180,50)" stroke-width="7.1" stroke-opacity="0.63" marker-end="url(#arrowhead)"/>
<path d="M 700.0,670.0 C 725.0,645.0 725.0,695.0 700.0,700.0" fill="none" stroke="rgb(220,88,50)" stroke-width="7.2" stroke-opacity="0.65" marker-end="url(#arrowhead)"/>
<path d="M 205.0,205.0 Q 399.03805922287444,490.96194077712556 667.3223304703363,667.3223304703363" fill="none" stroke="rgb(188,180,50)" stroke-width="7.3" stroke-opacity="0.66" marker-end="url(#arrowhead)"/>
<path d="M 605.0,605.0 Q 570.9619407771256,479.03805922287444 462.67766952966366,462.67766952966366" fill="none" stroke="rgb(220,16,50)" stroke-width="7.4" stroke-opacity="0.68" marker-end="url(#arrowhead)"/>
<path d="M 620.0,590.0 C 645.0,565.0 645.0,615.0 620.0,620.0" fill="none" stroke="rgb(220,56,50)" stroke-width="7.5" stroke-opacity="0.69" marker-end="url(#arrowhead)"/>
<path d="M 525.0,525.0 Q 559.0380592228744,650.9619407771256 667.3223304703363,667.3223304703363" fill="none" stroke="rgb(220,121,50)" stroke-width="7.6" stroke-opacity="0.71" marker-end="url(#arrowhead)"/>
<path d="M 525.0,525.0 Q 530.3933982822018,599.6066017177982 587.3223304703363,587.3223304703363" fill="none" stroke="rgb(220,147,50)" stroke-width="7.8" stroke-opacity="0.75" marker-end="url(#arrowhead)"/>
<path d="M 605.0,605.0 Q 610.3933982822018,679.6066017177982 667.3223304703363,667.3223304703363" fill="none" stroke="rgb(220,66,50)" stroke-width="7.8" stroke-opacity="0.76" marker-end="url(#arrowhead)"/>
<path d="M 365.0,365.0 Q 479.03805922287444,570.9619407771256 667.3223304703363,667.3223304703363" fill="none" stroke="rgb(220,20,50)" stroke-width="8.0" stroke-opacity="0.80" marker-end="url(#arrowhead)"/>
<text x="85" y="755" font-family="sans-serif" font-size="14" font-weight="bold" fill="#333">凡例</text>
<text x="85" y="780" font-family="sans-serif" font-size="11" fill="#666">成功率:</text>
<line x1="145" y1="775" x2="185" y2="775" stroke="rgb(220,0,50)" stroke-width="4"/>
<text x="190" y="780" font-family="sans-serif" font-size="10" fill="#666">0%</text>
<line x1="225" y1="775" x2="265" y2="775" stroke="rgb(220,180,50)" stroke-width="4"/>
<text x="270" y="780" font-family="sans-serif" font-size="10" fill="#666">50%</text>
<line x1="305" y1="775" x2="345" y2="775" stroke="rgb(50,180,50)" stroke-width="4"/>
<text x="350" y="780" font-family="sans-serif" font-size="10" fill="#666">100%</text>
<text x="435" y="780" font-family="sans-serif" font-size="11" fill="#666">件数:</text>
<line x1="485" y1="775" x2="525" y2="775" stroke="#888" stroke-width="1.5"/>
<text x="530" y="780" font-family="sans-serif" font-size="10" fill="#666">10件</text>
<line x1="575" y1="775" x2="615" y2="775" stroke="#888" stroke-width="5.3"/>
<text x="620" y="780" font-family="sans-serif" font-size="10" fill="#666">100件</text>
<line x1="665" y1="775" x2="705" y2="775" stroke="#888" stroke-width="8.0"/>
<text x="710" y="780" font-family="sans-serif" font-size="10" fill="#666">500件</text>
<text x="85" y="810" font-family="sans-serif" font-size="11" fill="#666">表示遷移数: 62パターン（10件以上）</text>
<text x="85" y="840" font-family="sans-serif" font-size="11" fill="#666">八卦（上卦）:</text>
<rect x="175" y="828" width="20" height="15" fill="#fff5e6" stroke="#999" stroke-width="0.5"/>
<text x="200" y="840" font-family="sans-serif" font-size="10" fill="#666">乾</text>
<rect x="255" y="828" width="20" height="15" fill="#e6f7ff" stroke="#999" stroke-width="0.5"/>
<text x="280" y="840" font-family="sans-serif" font-size="10" fill="#666">兌</text>
<rect x="335" y="828" width="20" height="15" fill="#fff0f0" stroke="#999" stroke-width="0.5"/>
<text x="360" y="840" font-family="sans-serif" font-size="10" fill="#666">離</text>
<rect x="415" y="828" width="20" height="15" fill="#f0ffe6" stroke="#999" stroke-width="0.5"/>
<text x="440" y="840" font-family="sans-serif" font-size="10" fill="#666">震</text>
<rect x="495" y="828" width="20" height="15" fill="#e6ffe6" stroke="#999" stroke-width="0.5"/>
<text x="520" y="840" font-family="sans-serif" font-size="10" fill="#666">巽</text>
<rect x="575" y="828" width="20" height="15" fill="#e6e6ff" stroke="#999" stroke-width="0.5"/>
<text x="600" y="840" font-family="sans-serif" font-size="10" fill="#666">坎</text>
<rect x="655" y="828" width="20" height="15" fill="#f5f5dc" stroke="#999" stroke-width="0.5"/>
<text x="680" y="840" font-family="sans-serif" font-size="10" fill="#666">艮</text>
<rect x="735" y="828" width="20" height="15" fill="#f0f0f0" stroke="#999" stroke-width="0.5"/>
<text x="760" y="840" font-family="sans-serif" font-size="10" fill="#666">坤</text>
</svg>